<?xml version="1.0" encoding="utf-8"?>
<!-- Generator: Adobe Illustrator 18.0.0, SVG Export Plug-In . SVG Version: 6.00 Build 0)  -->
<!DOCTYPE svg PUBLIC "-//W3C//DTD SVG 1.1//EN" "http://www.w3.org/Graphics/SVG/1.1/DTD/svg11.dtd">
<svg version="1.1" id="Layer_1" xmlns="http://www.w3.org/2000/svg" xmlns:xlink="http://www.w3.org/1999/xlink" x="0px" y="0px"
	 viewBox="5.7 325.9 594.6 182.2" enable-background="new 5.7 325.9 594.6 182.2" xml:space="preserve">
<g>
	<g>
		<path fill="#4AB763" d="M91.7,442.9V462l0.6,0.6c1.6,1.3,2.9,2.2,4.5,2.9v6l1,0.6c1.6,0.6,3.2,1.3,4.8,1.9v2.5
			c24.8,7.3,49.6-27.3,74.4-6v-26.7V435v-3.2c-0.6-0.6-1.3-1-1.9-1.6v-6.7l-1-0.6c-1.3-1-2.9-1.6-4.5-2.2v-6l-1-0.6
			c-11.8-4.1-23.5,0.6-34.7,5.4c-13.7,5.7-26.4,11.4-39.1,1.3l-3.2-2.2v17.2 M97.1,428.6v32.8c-0.6-0.3-1-0.6-1.6-1v-34.7
			c13.7,8.3,27,2.5,39.7-2.9c10.5-4.5,20.7-8.9,30.5-5.7v2.2c-2.2-0.6-4.5-1-7-1c-8.6,0-17.2,3.5-25.1,7c-7.9,3.5-15.9,7-23.8,7
			c-3.8,0-7.3-0.6-10.5-2.5L97.1,428.6z M140,462c-7,2.9-12.7-0.6-12.7-7.9c0-7.3,5.7-15.6,12.4-18.4c7-2.9,12.4,1.9,12.4,9.2
			C152.4,451.8,146.7,459.1,140,462L140,462z M171.2,427.6c-22.9-12.1-45.8,16.9-68.4,9.9c0,10.8,0,21.6,0,32.4
			c-0.6-0.3-1.3-0.3-1.9-0.6v-35c2.9,1,6,1.6,9.5,1.6c8.6,0,17.2-3.5,25.1-7.3c7.9-3.5,15.9-7,23.8-7c4.5,0,8.3,1,12.1,3.2v2.9
			H171.2z M140.9,442.6v4.5c0.3,0,0.3,0,0.6-0.3c2.2-0.6,3.5-1,4.5-0.3c0.6,0.3,1.3,1.6,1.3,3.2c0,1.9-0.3,3.5-1.3,4.5
			c-1,1-2.2,1.9-4.5,2.9c-0.3,0-0.3,0.3-0.6,0.3v1.9c-0.6,0.3-1.3,0.6-1.9,1v-1.9c-0.3,0-0.3,0-0.6,0.3c-1.9,1-3.5,1.3-4.5,0.6
			c-1-0.3-1.3-1.6-1.3-3.2c0-0.3,0-0.3,0-0.6c1-0.3,1.9-1,2.9-1.3v0.3c0,1.3,0.3,1.9,0.6,1.9c0.3,0.3,1,0,2.2-0.3c0,0,0.3,0,0.3-0.3
			v-5.1c-2.2,1-3.8,1.3-4.8,1c-1-0.3-1.3-1.6-1.3-3.5c0-1.9,0.3-3.2,1.3-4.5c1-1,2.5-2.2,4.8-3.2v-1.9c0.6-0.3,1.3-0.6,1.9-1v1.9
			c2.2-1,3.8-1,4.5-0.6c1,0.3,1.3,1.6,1.3,3.2v0.6c-1,0.3-1.9,0.6-2.9,1v-0.3c0-1.3-0.6-1.6-2.2-1.3
			C141.3,442.3,140.9,442.3,140.9,442.6L140.9,442.6z M139,443.2c0,0-0.3,0-0.3,0.3c-1.6,0.6-2.5,1.9-2.5,3.2c0,1.6,1,1.9,2.5,1.3
			c0,0,0,0,0.3-0.3C139,446.1,139,444.8,139,443.2L139,443.2z M140.9,454.7c0,0,0.3,0,0.3-0.3c1.9-0.6,2.9-1.9,2.9-3.5
			c0-1-0.3-1.6-0.6-1.6c-0.3,0-1.3,0-2.5,0.6V454.7z"/>
		<path fill="#6D6E70" d="M206.1,444.8c20,4.8,32.8-9.5,32.8-9.5c-7.6,1-7.9-6.4-7.9-6.4c25.1,1,25.1-13.4,25.1-13.4
			c-6.7,4.1-7.9-1-7.9-1c19.4-6.4,13.4-23.8,13.4-23.8l0,0c-5.1,14.9-43.2,15.6-43.2,15.6c0.3,13-7.6,21.9-12.1,25.8"/>
		<path fill="#6D6E70" d="M65.3,433.4c-3.5-2.5-14.9-11.8-14.6-27.7c0,0-38.2-0.6-43.2-15.6c0,0-6,17.5,13.7,23.8c0,0-1.6,5.4-7.9,1
			c0,0,0,14.3,25.1,13.4c0,0-0.6,7.3-7.9,6.4c0,0,14,15.6,35,8.9"/>
		<path fill="#6D6E70" d="M112,409.5H98.3v-47.7c0-19.7,16.2-35.9,36.3-35.9s36.3,16.2,36.3,35.9v35h-13.7v-35
			c0-12.4-10.2-22.6-22.6-22.6c-12.4,0-22.6,10.2-22.6,22.6L112,409.5L112,409.5z"/>
		<path fill="#6D6E70" d="M208.7,392c-3.8-4.8-9.9-7.3-16.5-7.3h-65.8v13.4h65.8c2.5,0,4.8,1,6,2.5s1.9,3.8,1.3,6.4l-14.9,76.3
			c-1.3,6-7.6,11.4-14,11.4H98.7c-6.4,0-12.7-5.4-14-11.4L69.7,407c-0.6-2.5,0-4.8,1.3-6.4c1.3-1.6,3.5-2.5,6-2.5h35.3v-13.4H76.7
			c-6.7,0-12.7,2.9-16.5,7.3c-3.8,4.8-5.4,11.1-4.1,17.5L71,485.8c2.5,12.4,14.6,22.3,27.3,22.3h71.9c13,0,24.8-9.9,27.3-22.3
			l14.9-76.3C214.4,403.2,212.8,396.5,208.7,392z"/>
	</g>
	<g>
		<g>
			<path fill="#6D6E70" d="M307.6,367.9h17.5l33.1,82.4h-14l-8.6-21.6h-39.7l-8.9,21.6h-14L307.6,367.9z M299.9,418.4h31.2
				l-15.3-40.7L299.9,418.4z"/>
			<path fill="#6D6E70" d="M417.9,443.5c0,2.9,0,5.1,0,6.7s0,2.9,0,3.8c0,1,0,1.6,0,2.2s0,1.3-0.3,1.9c-0.6,5.1-3.8,8.6-9.2,10.2
				c-1,0.3-1.9,0.3-2.9,0.6c-1,0.3-1.9,0.3-2.9,0.3c-1.3,0-2.5,0-3.8,0.3c-1.3,0-3.2,0-5.1,0h-26.1v-9.5h27.7c2.2,0,4.1,0,5.4-0.3
				c1.3-0.3,2.5-0.6,3.2-1c0.6-0.6,1.3-1.3,1.6-2.2c0.3-1,0.3-2.2,0.3-3.8v-2.2h-13c-3.2,0-5.7,0-7.6,0c-1.9,0-3.8-0.3-5.1-0.6
				c-1.3-0.3-2.5-0.6-3.8-1c-1.3-0.3-2.2-1-3.5-1.9c-3.8-2.2-7-5.7-8.9-9.9c-1.9-4.1-2.9-9.5-2.9-15.3c0-5.1,0.6-9.5,1.9-13.7
				s3.2-7.6,5.7-10.2c1.3-1.6,2.5-2.5,4.1-3.5c1.6-1,3.2-1.6,5.1-2.2c1.9-0.6,4.1-1,6.7-1.3s5.4-0.3,8.6-0.3h25.1v52.8H417.9z
				 M393.7,400c-2.5,0-4.8,0-6.4,0.3c-1.9,0.3-3.2,0.6-4.5,1s-2.2,1-3.2,1.9c-1,0.6-1.6,1.6-2.5,2.9c-1,1.6-1.9,3.8-2.5,7
				c-0.6,2.9-1,6-1,8.9c0,2.9,0.3,5.7,1.3,8.3c0.6,2.5,1.9,4.8,3.2,6.4c1.3,1.6,3.2,2.9,5.1,3.5c1.9,0.6,4.8,1,8.6,1h14.3v-41H393.7
				z"/>
			<path fill="#6D6E70" d="M479.9,424.1h-36.3c0,3.2,0.3,5.4,1,7.3c0.6,1.9,1.6,3.8,3.2,5.1c1.3,1.3,3.2,2.5,5.4,2.9
				c2.2,0.6,5.4,1,9.2,1h17.5v9.5h-20.7c-2.5,0-5.1,0-7-0.3c-1.9-0.3-3.8-0.6-5.4-1c-1.6-0.3-2.9-1-4.1-1.6
				c-1.3-0.6-2.5-1.6-3.5-2.9c-2.5-2.5-4.8-5.7-6-9.9c-1.6-3.8-2.2-8.6-2.2-13.7c0-6.4,1.3-12.1,3.5-16.5c2.2-4.8,5.7-8.3,10.5-10.8
				c2.2-1.3,4.8-2.5,7.6-2.9c2.9-0.6,6.4-1,10.2-1h17.5v9.5h-15.9c-3.5,0-6.4,0.3-8.6,0.6c-2.2,0.6-4.5,1.3-6,2.5
				c-1.6,1.3-2.9,2.5-3.8,4.5c-1,1.9-1.6,4.1-2.2,7h36.3L479.9,424.1L479.9,424.1z"/>
			<path fill="#6D6E70" d="M522.2,390.1c8.9,0,15.3,1.9,18.8,5.7c3.5,3.8,5.7,9.9,5.7,18.8v35.9h-12.1v-34.7c0-2.9-0.3-5.4-0.6-7.6
				c-0.6-1.9-1.3-3.8-2.5-5.1c-1-1.3-2.5-2.2-4.5-2.9c-1.9-0.6-4.1-1-6.7-1h-14v50.6h-12.1v-59.8H522.2z"/>
			<path fill="#6D6E70" d="M568.3,367.9h12.1v22.3h17.5v9.5h-17.5v31.5c0,2.2,0,3.8,0.3,5.1c0.3,1.3,0.6,2.2,1.6,2.9
				c0.6,0.6,1.9,1,3.2,1.3s3.2,0.3,5.4,0.3h7v9.5h-11.4c-3.8,0-7-0.3-8.9-0.6s-3.8-1.6-5.1-2.9c-1.6-1.3-2.5-3.2-3.2-5.4
				c-0.6-2.2-1-5.1-1-8.9V400h-11.8v-9.5H568v-22.6H568.3z"/>
		</g>
		<g>
			<g>
				<path fill="#4AB763" d="M451.6,483.3c0,2.9-1,5.1-3.2,7s-4.8,2.9-7.6,2.9h-11.4v-34.7h9.9c2.9,0,5.1,1,7.3,2.5
					c2.2,1.6,3.2,3.8,3.2,6.7c0,3.2-1.3,5.4-4.1,7.3C449.4,476.3,451.3,479.2,451.6,483.3z M439.2,461.7h-6.4v11.8h6.4
					c1.9,0,3.5-0.6,4.8-1.6c1.3-1,2.2-2.5,2.2-4.1c0-1.9-0.6-3.5-2.2-4.5C443,462.3,441.1,461.7,439.2,461.7z M447.8,483
					c0-2.2-1-3.8-2.5-5.1c-1.6-1-3.5-1.6-6-1.6h-6.4v13.4h6.4c2.9,0,4.8-0.6,6.4-1.9C447.5,486.8,448.1,485.2,447.8,483z"/>
				<path fill="#4AB763" d="M482.2,480.4L482.2,480.4v13h-3.5v-4.1c-2.9,3.2-6.4,4.8-10.5,4.8c-3.5,0-6.7-1.6-9.2-4.1
					c-2.5-2.5-3.8-5.7-3.8-9.5c0-3.8,1.3-7,4.1-9.9c2.9-2.9,6-4.1,9.9-3.8c3.8,0,6.7,1.6,9.2,4.1
					C481.2,473.7,482.5,476.9,482.2,480.4z M478.7,480.1c0-2.9-1-5.1-2.9-7c-1.9-1.9-4.1-2.9-7-2.9c-2.9,0-5.1,1-7,2.9
					c-1.9,1.9-2.9,4.5-2.9,7c0,2.9,1,5.1,2.9,7.3c1.9,1.9,4.1,3.2,6.7,3.2c2.9,0,5.4-1,7.3-2.9C478,485.5,479,483,478.7,480.1z"/>
				<path fill="#4AB763" d="M509.5,493.5H506v-15.3c0-2.2-1-4.1-2.5-5.7c-1.6-1.6-3.5-2.2-5.7-2.2s-4.1,0.6-5.7,2.2
					c-1.6,1.6-2.5,3.5-2.5,5.7v15.3H486v-14.6c0-3.5,1-6,3.2-8.3c2.2-2.2,5.1-3.5,8.3-3.5c3.2,0,6,1,8.3,3.5
					c2.2,2.2,3.2,5.1,3.2,8.3v14.6H509.5z"/>
				<path fill="#4AB763" d="M534.6,493.5h-4.5l-8.6-10.2l-4.1,5.1v5.1h-3.8v-35h3.5v24.8l12.1-15.6h4.5l-9.9,13L534.6,493.5z"/>
				<path fill="#4AB763" d="M541.3,464.5h-3.5v-6h3.5V464.5z M541.3,493.5h-3.5v-25.8h3.5V493.5z"/>
				<path fill="#4AB763" d="M568.6,493.5h-3.5v-15.3c0-2.2-1-4.1-2.5-5.7c-1.6-1.6-3.5-2.2-5.7-2.2c-2.2,0-4.1,0.6-5.7,2.2
					c-1.6,1.6-2.5,3.5-2.5,5.7v15.3h-3.5v-14.6c0-3.5,1-6,3.2-8.3c2.2-2.2,5.1-3.5,8.3-3.5c3.2,0,6,1,8.3,3.5
					c2.2,2.2,3.2,5.1,3.2,8.3v14.6H568.6z"/>
				<path fill="#4AB763" d="M599.8,480.1v12.1c0,3.2-1.3,6-4.1,8.3c-2.5,2.2-5.7,3.2-9.2,3.2c-3.2,0-5.7-1-7.9-2.9
					c-2.2-1.6-3.5-3.8-4.5-6.4h3.5c0.6,1.9,1.6,3.2,3.5,4.5c1.9,1.3,3.8,1.9,6,1.9c2.5,0,4.8-1,6.7-2.5c1.9-1.6,2.9-3.8,2.9-6.4
					v-2.5c-2.5,2.9-5.7,4.5-9.5,4.5c-3.8,0-7-1.3-9.5-3.8c-2.9-2.9-4.1-6-4.1-9.9c0-3.5,1.3-6.7,3.8-9.5c2.5-2.5,5.7-4.1,9.2-4.1
					c3.8,0,7,1.3,9.9,3.8C598.5,473.1,599.8,476.6,599.8,480.1z M596.3,480.4c0-2.9-1-5.4-2.9-7.3c-1.9-2.2-4.5-3.2-7.3-2.9
					c-2.5,0-5.1,1.3-6.7,3.2c-1.9,1.9-2.9,4.5-2.9,7.3c0,2.9,1,5.1,3.2,7c1.9,1.9,4.5,2.9,7,2.9c2.5,0,5.1-1,7-2.9
					C595.7,485.8,596.3,483.3,596.3,480.4z"/>
			</g>
		</g>
		<g>
			<g>
				<path fill="#929497" d="M365.4,381.5H362l-9.5-18.4v18.1h-2.5v-20h4.1l8.9,16.5v-16.5h2.5L365.4,381.5L365.4,381.5z"/>
				<path fill="#929497" d="M383.6,381.5H381v-1.6c-1,0.6-1.6,1.3-2.5,1.6c-1,0.3-1.6,0.6-2.5,0.6c-1.6,0-2.9-0.6-3.8-1.6
					c-1-1-1.3-2.5-1.3-4.5v-9.9h2.5v8.6c0,0.6,0,1.6,0,1.9c0,0.6,0.3,1,0.3,1.3c0.3,0.3,0.6,0.6,1,1c0.3,0.3,1,0.3,1.6,0.3
					c0.6,0,1.3-0.3,2.2-0.6s1.6-0.6,2.2-1.3v-11.1h2.5v15.3H383.6z"/>
				<path fill="#929497" d="M399.5,377.1c0,1.3-0.6,2.5-1.6,3.5c-1.3,1-2.9,1.3-4.8,1.3c-1.3,0-2.2,0-3.2-0.3s-1.6-0.6-2.5-1v-2.9
					l0,0c1,0.6,1.6,1,2.9,1.6c1,0.3,1.9,0.6,2.9,0.6c1.3,0,1.9-0.3,2.5-0.6c0.6-0.3,1-1,1-1.6s-0.3-1-0.6-1.3c-0.3-0.3-1-0.6-1.9-1
					c-0.3,0-1-0.3-1.6-0.3c-0.6,0-1.3-0.3-1.6-0.3c-1.3-0.3-2.2-1-2.9-1.6c-0.6-0.6-1-1.6-1-2.5c0-0.6,0-1.3,0.3-1.9s0.6-1,1.3-1.6
					c0.6-0.3,1.3-0.6,1.9-1c1-0.3,1.6-0.3,2.5-0.3s1.9,0,2.9,0.3s1.6,0.6,2.2,1v2.9l0,0c-0.6-0.6-1.6-1-2.5-1.3s-1.9-0.6-2.9-0.6
					s-1.6,0.3-2.5,0.6s-1,1-1,1.6s0.3,1,0.6,1.3s1,0.6,1.9,0.6c0.3,0,1,0.3,1.6,0.3c0.6,0,1,0.3,1.6,0.3c1.3,0.3,2.2,0.6,2.9,1.3
					C399.2,375.2,399.5,375.8,399.5,377.1z"/>
				<path fill="#929497" d="M417,373.6c0,1.3-0.3,2.2-0.6,3.5c-0.3,1-1,1.9-1.6,2.5s-1.3,1.3-2.2,1.6s-1.6,0.6-2.5,0.6
					s-1.6,0-2.2-0.3c-0.6-0.3-1.3-0.3-1.9-1v6.4h-2.5v-20.7h2.5v1.6c0.6-0.6,1.6-1,2.2-1.6c1-0.3,1.9-0.6,2.9-0.6
					c1.9,0,3.2,0.6,4.5,2.2C416.3,369.1,417,371,417,373.6z M414.1,373.6c0-1.9-0.3-3.2-1-4.1c-0.6-1-1.6-1.3-2.9-1.3
					c-0.6,0-1.6,0.3-2.2,0.6c-0.6,0.3-1.6,0.6-2.2,1.3v8.6c0.6,0.3,1.3,0.6,1.9,0.6c0.6,0,1.3,0.3,1.9,0.3c1.6,0,2.5-0.6,3.5-1.6
					C413.8,377.1,414.1,375.5,414.1,373.6z"/>
				<path fill="#929497" d="M432.9,381.5h-2.5v-1.6c-0.3,0-0.6,0.3-1,0.6c-0.3,0.3-0.6,0.6-1.3,0.6c-0.3,0.3-1,0.3-1.6,0.6
					c-0.6,0-1.3,0.3-1.9,0.3c-1.3,0-2.5-0.3-3.5-1.3c-1-1-1.6-2.2-1.6-3.5s0.3-2.2,0.6-2.9c0.6-0.6,1.3-1.3,2.2-1.6
					c1-0.3,2.2-0.6,3.5-1c1.3,0,2.9-0.3,4.1-0.3v-0.3c0-0.6,0-1-0.3-1.6c-0.3-0.3-0.6-0.6-1-1c-0.3-0.3-1-0.3-1.3-0.3
					c-0.6,0-1,0-1.6,0c-0.6,0-1.6,0-2.2,0.3c-1,0.3-1.6,0.3-2.5,0.6l0,0v-2.9c0.6,0,1.3-0.3,2.2-0.3c1-0.3,1.9-0.3,2.9-0.3
					c1,0,1.9,0,2.9,0.3c1,0.3,1.6,0.6,2.2,1c0.6,0.3,1,1,1.3,1.6c0.3,0.6,0.3,1.6,0.3,2.5L432.9,381.5L432.9,381.5z M430.3,377.7
					v-4.1c-0.6,0-1.6,0-2.9,0.3c-1,0-1.9,0.3-2.5,0.3c-0.6,0.3-1.3,0.6-1.9,1c-0.3,0.3-0.6,1-0.6,1.9s0.3,1.6,1,1.9
					c0.6,0.3,1.3,0.6,2.5,0.6c1,0,1.6-0.3,2.5-0.6C429,378.7,429.7,378.4,430.3,377.7z"/>
				<path fill="#929497" d="M451,366.3l-8.9,21h-2.9l2.9-6.4l-6-14.6h2.9l4.8,11.4l4.8-11.4H451z"/>
			</g>
		</g>
	</g>
</g>
</svg>
